<svg width="49" height="14" viewBox="0 0 49 14" fill="none" xmlns="http://www.w3.org/2000/svg">
<path d="M11.98 -9.53674e-07V14H10.76L1.76003 2.64V14H0.280031V-9.53674e-07H1.50003L10.52 11.36V-9.53674e-07H11.98ZM26.4496 12.72V14H16.5496V-9.53674e-07H26.1496V1.28H18.0296V6.26H25.2696V7.52H18.0296V12.72H26.4496ZM48.9532 -9.53674e-07L44.2332 14H42.6732L38.5732 2.06L34.4532 14H32.9132L28.1932 -9.53674e-07H29.7132L33.7532 12.04L37.9332 -9.53674e-07H39.3132L43.4332 12.1L47.5332 -9.53674e-07H48.9532Z" fill="white"/>
</svg>
